<?xml version="1.0" standalone="no"?>
<!DOCTYPE svg PUBLIC "-//W3C//DTD SVG 20010904//EN"
 "http://www.w3.org/TR/2001/REC-SVG-20010904/DTD/svg10.dtd">
<svg version="1.0" xmlns="http://www.w3.org/2000/svg"
 width="800.000000pt" height="800.000000pt" viewBox="0 0 800.000000 800.000000"
 preserveAspectRatio="xMidYMid meet">
<metadata>
Created by potrace 1.14, written by Peter Selinger 2001-2017
</metadata>
<g transform="translate(0.000000,800.000000) scale(0.100000,-0.100000)"
fill="#000000" stroke="none">
<path d="M830 7985 c-417 -76 -742 -403 -815 -821 -13 -76 -15 -465 -15 -3164
0 -2699 2 -3088 15 -3164 74 -421 400 -747 821 -821 76 -13 465 -15 3164 -15
2699 0 3088 2 3164 15 421 74 747 400 821 821 13 76 15 465 15 3164 0 2699 -2
3088 -15 3164 -74 421 -400 747 -821 821 -76 13 -464 15 -3173 14 -2548 -1
-3099 -3 -3161 -14z m4049 -1939 c288 -70 523 -196 725 -387 243 -230 402
-526 458 -854 17 -102 19 -147 15 -295 -6 -189 -27 -308 -82 -460 -178 -491
-611 -870 -1120 -979 l-80 -18 -3 -566 -2 -567 -1185 0 -1185 0 0 2080 0 2081
1173 -4 1172 -3 114 -28z"/>
<path d="M3020 4000 l0 -1490 583 2 582 3 3 557 2 556 253 4 c218 4 263 8 332
27 89 24 221 83 293 133 273 186 429 497 409 816 -15 237 -113 449 -284 613
-122 118 -251 190 -423 237 l-95 27 -827 3 -828 3 0 -1491z"/>
</g>
</svg>
